<svg width="18" height="17" viewBox="0 0 18 17" fill="none" xmlns="http://www.w3.org/2000/svg">
<path d="M9.0013 0.166016C13.6036 0.166016 17.3346 3.89697 17.3346 8.49935C17.3346 13.1017 13.6036 16.8327 9.0013 16.8327C4.39893 16.8327 0.667969 13.1017 0.667969 8.49935C0.667969 3.89697 4.39893 0.166016 9.0013 0.166016ZM9.0013 4.33268C8.68489 4.33268 8.42339 4.56781 8.38197 4.87287L8.3763 4.95768V7.87435H5.45964C5.11446 7.87435 4.83464 8.15418 4.83464 8.49935C4.83464 8.81577 5.06976 9.07727 5.37483 9.11868L5.45964 9.12435H8.3763V12.041C8.3763 12.3862 8.65614 12.666 9.0013 12.666C9.31772 12.666 9.57922 12.4308 9.62064 12.1258L9.6263 12.041V9.12435H12.543C12.8881 9.12435 13.168 8.84452 13.168 8.49935C13.168 8.18293 12.9328 7.92143 12.6278 7.88002L12.543 7.87435H9.6263V4.95768C9.6263 4.61251 9.34647 4.33268 9.0013 4.33268Z" fill="white"/>
</svg>
