<svg width="18" height="40" viewBox="0 0 18 40" fill="none" xmlns="http://www.w3.org/2000/svg">
<g clip-path="url(#clip0_1710_77570)">
<path d="M8.71795 12.5641C13.5327 12.5641 17.4359 16.4673 17.4359 21.2821C17.4359 26.0968 13.5327 30 8.71795 30C3.90316 30 0 26.0968 0 21.2821C0 16.4673 3.90316 12.5641 8.71795 12.5641ZM8.71795 14.1026C4.75283 14.1026 1.53846 17.3169 1.53846 21.2821C1.53846 25.2472 4.75283 28.4615 8.71795 28.4615C12.6831 28.4615 15.8974 25.2472 15.8974 21.2821C15.8974 17.3169 12.6831 14.1026 8.71795 14.1026ZM8.71795 15.641C9.10738 15.641 9.42923 15.9304 9.48021 16.3059L9.48718 16.4103V21.0256C9.48718 21.4505 9.14277 21.7949 8.71795 21.7949C8.32851 21.7949 8.00667 21.5054 7.95569 21.1301L7.94872 21.0256V16.4103C7.94872 15.9854 8.29313 15.641 8.71795 15.641ZM16.0484 12.6807L16.1331 12.7421L17.3212 13.731C17.6478 14.0028 17.6921 14.4878 17.4204 14.8143C17.1712 15.1137 16.7429 15.1759 16.4217 14.9748L16.337 14.9135L15.1489 13.9246C14.8224 13.6528 14.7781 13.1678 15.0497 12.8412C15.299 12.5419 15.7273 12.4797 16.0484 12.6807ZM11.0256 10C11.4505 10 11.7949 10.3444 11.7949 10.7692C11.7949 11.1587 11.5054 11.4805 11.1301 11.5314L11.0256 11.5385H6.41026C5.98543 11.5385 5.64103 11.1941 5.64103 10.7692C5.64103 10.3798 5.93041 10.058 6.30588 10.007L6.41026 10H11.0256Z" fill="#454545"/>
</g>
<defs>
<clipPath id="clip0_1710_77570">
<path d="M0 8.7992C0 3.93954 3.93953 0 8.79919 0C13.6589 0 17.5984 3.93953 17.5984 8.79919V31.2008C17.5984 36.0605 13.6589 40 8.79919 40C3.93953 40 0 36.0605 0 31.2008V8.7992Z" fill="white"/>
</clipPath>
</defs>
</svg>
