<svg width="80" height="80" viewBox="0 0 80 80" fill="none" xmlns="http://www.w3.org/2000/svg">
<g clip-path="url(#clip0_568_87196)">
<path fill-rule="evenodd" clip-rule="evenodd" d="M35.7039 0.172704C33.3156 0.516767 30.674 1.55739 28.5735 2.9813C26.5662 4.34192 24.0632 7.21677 24.0632 8.16145C24.0632 8.73442 24.5695 9.21817 25.169 9.21817C25.7007 9.21817 26.0395 8.91786 27.1882 7.42817C28.5706 5.63552 31.3706 3.74489 33.6726 3.05005C36.4451 2.21317 39.2373 2.15145 41.7195 2.87192C43.5673 3.40833 44.4054 3.79255 45.909 4.79302L47.2111 5.65942L48.5176 5.55067C50.1245 5.41677 51.3081 5.63614 52.5662 6.30099C54.4535 7.29849 55.7565 9.10161 56.0982 11.189C56.1812 11.6949 56.2493 14.1 56.2498 16.5338L56.2507 20.9586L55.9076 20.9088C55.6798 20.8755 55.4356 20.6077 55.1804 20.1108C54.864 19.4946 54.3184 18.9908 52.0821 17.2499C50.5893 16.0877 49.0709 15.0021 48.7078 14.8372C47.5804 14.3255 46.7051 14.43 43.9676 15.4036C38.0425 17.511 32.7598 18.7854 28.1257 19.2252C25.937 19.433 25.1512 19.7241 24.7656 20.4697C24.6153 20.7604 24.4017 20.9369 24.2004 20.9369C23.8803 20.9369 23.8778 20.8994 23.961 17.4604C24.0073 15.5483 24.0915 13.7241 24.1484 13.4068C24.2356 12.919 24.1898 12.768 23.852 12.4302C23.6078 12.186 23.277 12.0307 23.0007 12.0307C21.8651 12.0307 21.577 13.3313 21.569 18.4925L21.5632 22.22L21.0923 22.8147C20.385 23.7077 20.1079 24.4904 20.0975 25.6244C20.0779 27.741 21.4632 29.5004 23.7339 30.243C24.5279 30.5029 24.532 30.5075 24.532 31.1688C24.532 32.1569 24.9403 34.3047 25.364 35.5463C26.4782 38.8102 28.7746 41.7908 31.5789 43.6129L32.8132 44.4149V45.3972V46.3797L31.282 47.4155L29.7509 48.4513L24.6804 49.9443C21.7867 50.7963 19.2167 51.645 18.6937 51.9215C16.9028 52.8682 15.6732 54.2907 15.0209 56.1713C14.4789 57.7341 11.2364 74.3786 11.2325 75.6188C11.2253 77.8805 12.4221 79.3502 14.6568 79.824C15.9125 80.09 28.7404 80.0568 29.0962 79.7865C29.4875 79.4891 29.672 78.8907 29.5079 78.4511C29.2407 77.7354 28.9785 77.666 26.5242 77.6607L24.2195 77.6557V71.9016V66.1477L23.8579 65.8079C23.4115 65.3886 22.8098 65.3726 22.3228 65.7668L21.9539 66.0654L21.9093 71.8605L21.8648 77.6557L18.55 77.6469C16.4053 77.6411 15.0471 77.5722 14.7029 77.4516C13.9181 77.1766 13.5703 76.6143 13.5637 75.6093C13.5567 74.533 16.9546 57.5021 17.3625 56.5705C17.8067 55.5555 18.3596 54.8985 19.2896 54.281C20.0834 53.7541 20.7164 53.5469 28.771 51.1777L29.4945 50.9649L30.5503 53.9586C31.1309 55.6054 31.7396 57.1761 31.9029 57.4493C32.2498 58.0293 33.441 58.6643 33.9501 58.5405C34.227 58.4733 34.6943 58.8077 36.2507 60.1871C37.325 61.1393 38.4851 62.0474 38.8289 62.2054C40.0892 62.7846 41.1553 62.48 42.7351 61.0897C45.6715 58.5055 45.6112 58.5497 46.2403 58.5141C46.5742 58.4954 47.1087 58.3185 47.4281 58.1211C48.107 57.7015 48.2964 57.3074 49.6129 53.5736L50.529 50.976L51.4757 51.2505C56.8407 52.8058 59.701 53.6835 60.157 53.9141C61.1445 54.4138 62.0023 55.2907 62.4865 56.295C62.8675 57.0855 63.277 58.8843 64.6998 66.015C65.66 70.8275 66.4468 75.1391 66.4485 75.5963C66.4523 76.5893 66.0895 77.1744 65.2985 77.4516C64.9542 77.5722 63.595 77.6411 61.446 77.6469L58.1257 77.6557V71.9736C58.1257 66.4618 58.1161 66.2793 57.8018 65.8799C57.3786 65.3416 56.6875 65.3297 56.1656 65.8518L55.782 66.2352V71.9455V77.6557H44.7093C33.744 77.6557 33.6326 77.6588 33.225 77.9796C32.6556 78.4274 32.6556 79.2277 33.225 79.6755C33.6351 79.9983 33.6921 79.9994 49.1548 79.9994C59.7326 79.9994 64.9248 79.9454 65.4643 79.8297C67.5162 79.3896 68.7767 77.7644 68.771 75.5663C68.7684 74.5575 65.4242 57.4375 64.9825 56.1713C64.325 54.2872 63.0975 52.8674 61.3078 51.9215C60.7857 51.6455 58.2268 50.7999 55.3614 49.9561L50.3315 48.4752L48.7598 47.4121L47.1882 46.349L47.1914 45.4007L47.1945 44.4525L47.9943 43.9838C50.6395 42.4336 53.2067 39.4793 54.3343 36.6875C54.88 35.3369 55.4654 32.8755 55.4676 31.9236C55.47 30.9054 55.6881 30.3119 56.06 30.3119C56.5843 30.3119 57.9021 29.5405 58.6423 28.8002C60.3132 27.1294 60.4312 24.4061 58.9054 22.7338C58.6428 22.446 58.6148 21.959 58.5514 16.5619C58.477 10.2563 58.4446 9.97739 57.5875 8.26645C55.9364 4.97067 52.3456 2.86895 48.9275 3.19755C47.9617 3.29036 47.904 3.27474 46.9743 2.66942C43.7584 0.575673 39.4818 -0.371827 35.7039 0.172704ZM46.0945 17.1261C44.9667 17.62 39.5382 19.369 37.6696 19.8404C34.1064 20.7393 29.5123 21.5585 28.0214 21.5608C26.7879 21.5629 26.8757 21.1535 26.8757 26.8994C26.8757 32.433 26.9498 33.1322 27.7648 35.2976C28.972 38.5047 31.8676 41.53 34.9635 42.819C36.5785 43.4913 37.9182 43.7435 39.8901 43.7468C43.4893 43.7525 46.3653 42.6927 48.795 40.4652C50.836 38.594 52.1412 36.4205 52.8451 33.7202C53.1596 32.5138 53.1845 32.0375 53.1939 27.0307C53.1993 24.0658 53.151 21.4643 53.0864 21.2494C53.0098 20.9947 52.0668 20.1652 50.3776 18.8666C47.5545 16.6961 47.3065 16.5954 46.0945 17.1261ZM23.5657 23.7341C21.9237 24.7754 22.075 26.8769 23.8576 27.7929C24.5117 28.1288 24.532 28.0635 24.532 25.6244C24.532 24.3354 24.4754 23.2807 24.4064 23.2807C24.3371 23.2807 23.959 23.4847 23.5657 23.7341ZM55.6257 25.6444C55.6257 28.265 55.5854 28.1949 56.6673 27.4579C58.1973 26.4154 57.8634 24.239 56.0554 23.47L55.6257 23.2874V25.6444ZM35.157 46.1316C35.157 46.6633 35.5104 47.6719 36.6279 50.3296L38.0989 53.8275H40.022H41.9451L43.3878 50.39C44.5129 47.709 44.832 46.7869 44.8375 46.1999C44.8435 45.5533 44.8059 45.459 44.571 45.5313C41.8354 46.3744 38.3926 46.3755 35.5085 45.5343C35.181 45.4388 35.157 45.4796 35.157 46.1316ZM32.5454 49.359C32.0975 49.6683 31.7273 49.9916 31.7229 50.0775C31.7092 50.3496 33.8078 56.0932 33.9207 56.0932C33.9803 56.0932 34.4551 55.7793 34.9762 55.3957L35.9237 54.6983L35.2168 53.0129C34.8281 52.086 34.294 50.8002 34.03 50.1557C33.7659 49.5111 33.5071 48.9418 33.455 48.8902C33.4028 48.8388 32.9935 49.0497 32.5454 49.359ZM45.4065 51.6075C44.7503 53.1722 44.2148 54.5254 44.2165 54.6146C44.2195 54.7775 45.6107 55.881 46.0029 56.0315C46.132 56.081 46.2753 55.9424 46.3731 55.673C46.4609 55.4315 46.8845 54.2494 47.3143 53.0463C47.7442 51.8432 48.1707 50.6666 48.2621 50.4316C48.421 50.024 48.387 49.9763 47.5142 49.3835L46.5996 48.7626L45.4065 51.6075ZM37.0823 56.7441L36.4293 57.2266L38.0904 58.6911C39.004 59.4966 39.8609 60.1557 39.9945 60.1557C40.2128 60.1557 40.6754 59.7858 42.934 57.8049L43.6017 57.2193L42.9423 56.7344L42.2829 56.2494L40.009 56.2557L37.7351 56.2618L37.0823 56.7441Z" fill="#2196F3"/>
</g>
<defs>
<clipPath id="clip0_568_87196">
<rect width="80" height="80" rx="10" fill="white"/>
</clipPath>
</defs>
</svg>
