<svg width="30" height="30" viewBox="0 0 30 30" fill="none" xmlns="http://www.w3.org/2000/svg">
<path d="M12.9529 8.08537H17.0505C17.0505 6.95386 16.1333 6.03659 15.0017 6.03659C13.8702 6.03659 12.9529 6.95386 12.9529 8.08537ZM11.4163 8.08537C11.4163 6.10522 13.0216 4.5 15.0017 4.5C16.9819 4.5 18.5871 6.10522 18.5871 8.08537H24.4773C24.9016 8.08537 25.2456 8.42935 25.2456 8.85366C25.2456 9.27797 24.9016 9.62195 24.4773 9.62195H23.1261L21.9255 22.0285C21.7349 23.9976 20.0801 25.5 18.1018 25.5H11.9016C9.92334 25.5 8.26855 23.9976 8.07799 22.0285L6.87736 9.62195H5.52611C5.10179 9.62195 4.75781 9.27797 4.75781 8.85366C4.75781 8.42935 5.10179 8.08537 5.52611 8.08537H11.4163ZM13.4651 12.9512C13.4651 12.5269 13.1211 12.1829 12.6968 12.1829C12.2725 12.1829 11.9285 12.5269 11.9285 12.9512V20.6341C11.9285 21.0584 12.2725 21.4024 12.6968 21.4024C13.1211 21.4024 13.4651 21.0584 13.4651 20.6341V12.9512ZM17.3066 12.1829C17.7309 12.1829 18.0749 12.5269 18.0749 12.9512V20.6341C18.0749 21.0584 17.7309 21.4024 17.3066 21.4024C16.8823 21.4024 16.5383 21.0584 16.5383 20.6341V12.9512C16.5383 12.5269 16.8823 12.1829 17.3066 12.1829ZM9.60744 21.8805C9.72177 23.062 10.7146 23.9634 11.9016 23.9634H18.1018C19.2888 23.9634 20.2816 23.062 20.3959 21.8805L21.5823 9.62195H8.42111L9.60744 21.8805Z" fill="#ED5554"/>
</svg>
