<svg width="80" height="80" viewBox="0 0 80 80" fill="none" xmlns="http://www.w3.org/2000/svg">
<g clip-path="url(#clip0_568_87218)">
<path fill-rule="evenodd" clip-rule="evenodd" d="M36.9522 0.108813C31.7882 0.572719 26.9561 1.89678 22.5186 4.06381C20.6574 4.97287 20.3064 5.20069 20.2164 5.55881C20.0655 6.16038 20.3244 6.76147 20.8413 7.00913C21.26 7.20991 21.3985 7.16788 23.2594 6.27678C26.7458 4.60725 29.6454 3.64022 33.1241 2.98663C36.9424 2.26913 41.6752 2.17381 45.4679 2.73803C57.6958 4.55662 68.3221 12.3057 73.7463 23.3594C76.1947 28.3491 77.3738 33.0091 77.6008 38.5938C78.1932 53.1668 70.2168 66.7557 57.0913 73.5349C55.9836 74.1071 54.9894 74.6843 54.8819 74.8176C54.3458 75.4826 54.9088 76.5626 55.7915 76.5626C56.9333 76.5626 62.2518 73.4396 65.2349 71.0177C68.4502 68.4071 72.1628 64.121 74.2674 60.5899C77.3174 55.4726 79.4083 49.0827 79.7924 43.7055C79.8463 42.9505 79.95 42.296 80.0229 42.251C80.0958 42.206 80.1543 41.0658 80.153 39.7174C80.1516 38.3504 80.093 37.3565 80.0205 37.4708C79.9427 37.5935 79.8479 37.0708 79.7846 36.171C79.4769 31.7938 77.8641 26.1732 75.7136 21.9843C69.34 9.56881 57.3808 1.44616 43.5929 0.167719C41.9157 0.0122505 38.3766 -0.0191557 36.9522 0.108813ZM36.6397 6.40897C23.2119 7.90709 12.0843 16.8754 7.95004 29.5313C3.07801 44.4466 9.01019 60.4616 22.5054 68.8254C32.03 74.7283 44.3757 75.3299 54.6085 70.3894C63.5227 66.0857 70.2355 57.9152 72.6605 48.4174C76.3524 33.9577 70.3083 19.1172 57.4929 11.1747C53.9379 8.97147 49.3782 7.30819 45.0275 6.62756C43.2021 6.34194 38.3691 6.216 36.6397 6.40897ZM15.288 8.55366C13.8852 9.60178 10.3327 13.1004 8.98051 14.7657C4.45754 20.3358 1.45988 27.1935 0.399727 34.3951C0.0620703 36.6897 0.0620703 43.3104 0.399727 45.6051C1.48238 52.9601 4.28379 59.398 8.88988 65.116C10.4938 67.1071 13.8882 70.4024 15.8647 71.8871C25.2125 78.9093 36.7194 81.4818 48.2444 79.1258C51.2402 78.5135 51.8571 78.2191 51.8691 77.3957C51.8835 76.4132 51.1597 76.0204 49.9372 76.3474C46.4486 77.2807 42.3744 77.7376 38.7491 77.6024C35.6841 77.488 33.6344 77.203 30.7769 76.4936C17.5313 73.2061 6.85379 62.5552 3.52004 49.3046C2.65879 45.8815 2.4341 43.9604 2.43223 40.0001C2.43035 35.9965 2.6591 34.0304 3.51566 30.6887C5.50426 22.9294 9.93723 15.9932 16.21 10.8257C17.6719 9.62147 17.8116 9.45975 17.8116 8.97194C17.8116 8.64584 17.6897 8.31569 17.4991 8.12506C16.9894 7.61538 16.388 7.73194 15.288 8.55366ZM36.2491 8.83084C30.4219 9.55256 24.6833 11.9869 20.2353 15.6241C13.7363 20.9387 9.65035 28.5135 8.75473 36.908C7.90145 44.9062 10.4886 53.481 15.6674 59.8186C24.9464 71.1743 40.8113 74.6194 53.8774 68.1161C60.2385 64.9501 64.9491 60.2394 68.1152 53.8783C74.106 41.8419 71.7221 27.3669 62.1771 17.8221C55.3636 11.0085 45.7063 7.65959 36.2491 8.83084ZM27.2647 21.9091C25.2796 22.1619 23.2702 23.6721 22.3735 25.5855C21.9925 26.3985 21.9522 26.6563 21.9522 28.2813C21.9522 31.0227 21.9841 31.0726 26.8516 35.9766L30.845 40.0001L26.8516 44.0235C21.9841 48.9276 21.9522 48.9774 21.9522 51.7188C21.9522 53.3438 21.9925 53.6016 22.3735 54.4146C23.5783 56.9857 26.2457 58.4332 29.1654 58.1005C31.0738 57.883 31.5638 57.5266 35.9757 53.1476L39.9991 49.1541L44.0225 53.1433C47.3985 56.4905 48.1957 57.2019 48.976 57.5635C51.4835 58.7258 54.5129 58.1585 56.3888 56.1749C57.5683 54.9276 58.0158 53.8558 58.0955 52.0866C58.1641 50.5649 57.9407 49.5415 57.2989 48.4376C57.1241 48.1368 55.2207 46.1174 53.0693 43.9502L49.1574 40.0096L50.2032 38.9263C51.3757 37.7118 51.503 37.271 50.8655 36.6337C50.163 35.931 49.8025 36.0866 47.9952 37.8722C46.5949 39.2557 46.3533 39.5674 46.3533 39.991C46.3533 40.4327 46.8385 40.9741 50.7466 44.8922C55.6118 49.7699 55.8196 50.0522 55.8193 51.7855C55.8191 52.9607 55.3688 53.9896 54.5188 54.7576C53.6897 55.5065 52.9074 55.8091 51.7846 55.8152C50.0552 55.8246 49.7746 55.6183 44.8913 50.7476C41.0075 46.8738 40.4289 46.3543 39.9991 46.3543C39.5693 46.3543 38.9907 46.8738 35.1069 50.7476C30.2236 55.6183 29.943 55.8246 28.2136 55.8152C25.9271 55.8029 24.1794 54.0572 24.1789 51.7855C24.1786 50.053 24.3878 49.7685 29.2352 44.9087C33.103 41.031 33.6139 40.4615 33.6266 40.0144C33.6397 39.5541 33.2457 39.1122 29.2496 35.1058C24.381 30.2247 24.1746 29.944 24.1839 28.2146C24.1963 25.928 25.9419 24.1804 28.2136 24.1799C29.9468 24.1796 30.2294 24.3876 35.1049 29.2505C39.1113 33.2466 39.5532 33.6407 40.0135 33.6276C40.4605 33.6149 41.03 33.104 44.9077 29.2362C49.7675 24.3888 50.0521 24.1796 51.7846 24.1799C52.9597 24.1801 53.9886 24.6304 54.7566 25.4804C55.4997 26.3029 55.7996 27.084 55.808 28.2194C55.8182 29.5658 55.3918 30.4179 53.985 31.8635C52.9625 32.9141 52.8116 33.1422 52.8116 33.6352C52.8116 34.2927 53.2408 34.6876 53.9554 34.6876C54.2975 34.6876 54.6655 34.4363 55.5002 33.6329C56.841 32.3421 57.3513 31.6182 57.8093 30.3572C58.1066 29.5385 58.1518 29.1565 58.0977 27.9194C58.0427 26.661 57.9627 26.3087 57.5346 25.439C56.3046 22.9407 53.7188 21.5705 50.851 21.8977C48.9408 22.1155 48.4314 22.4854 44.0225 26.8568L39.9991 30.846L35.9757 26.8526C32.6572 23.5588 31.7941 22.7854 31.0496 22.4387C29.9832 21.9419 28.5657 21.7437 27.2647 21.9091Z" fill="#ED5554"/>
</g>
<defs>
<clipPath id="clip0_568_87218">
<rect width="80" height="80" fill="white"/>
</clipPath>
</defs>
</svg>
