<svg width="30" height="30" viewBox="0 0 30 30" fill="none" xmlns="http://www.w3.org/2000/svg">
<path d="M24.3981 5.60043C22.9307 4.13313 20.5518 4.1332 19.0846 5.60058L6.53794 18.1487C6.11132 18.5754 5.81146 19.112 5.67172 19.6989L4.52143 24.5302C4.4581 24.7962 4.53729 25.076 4.73065 25.2693C4.92401 25.4627 5.20384 25.5419 5.46985 25.4786L10.3008 24.3284C10.8879 24.1885 11.4247 23.8886 11.8515 23.4618L24.3982 10.9136C25.8653 9.44633 25.8653 7.06759 24.3981 5.60043ZM20.1983 6.71413C21.0504 5.86185 22.4322 5.86181 23.2844 6.71404C24.1366 7.5662 24.1367 8.94782 23.2845 9.80004L22.3487 10.736L19.2626 7.6499L20.1983 6.71413ZM18.149 8.76358L21.2352 11.8497L10.7378 22.3482C10.5172 22.5689 10.2396 22.724 9.93604 22.7963L6.34987 23.6501L7.20378 20.0638C7.27603 19.7603 7.43106 19.4829 7.65162 19.2623L18.149 8.76358Z" fill="#2196F3"/>
</svg>
