<svg width="11" height="16" viewBox="0 0 11 16" fill="none" xmlns="http://www.w3.org/2000/svg">
<path fill-rule="evenodd" clip-rule="evenodd" d="M0.0078125 5.69621C0.0078125 2.82858 2.33249 0.503906 5.20012 0.503906C8.06775 0.503906 10.3924 2.82858 10.3924 5.69621C10.3924 8.36883 8.37316 10.5698 5.77704 10.8568V12.8116H6.73858C7.05721 12.8116 7.31551 13.0699 7.31551 13.3885C7.31551 13.7071 7.05721 13.9654 6.73858 13.9654H5.77704V14.927C5.77704 15.2456 5.51875 15.5039 5.20012 15.5039C4.88149 15.5039 4.6232 15.2456 4.6232 14.927V13.9654H3.66166C3.34303 13.9654 3.08474 13.7071 3.08474 13.3885C3.08474 13.0699 3.34303 12.8116 3.66166 12.8116H4.6232V10.8568C2.02707 10.5698 0.0078125 8.36883 0.0078125 5.69621ZM5.20012 1.65775C2.96974 1.65775 1.16166 3.46583 1.16166 5.69621C1.16166 7.92659 2.96974 9.73468 5.20012 9.73468C7.43049 9.73468 9.23858 7.92659 9.23858 5.69621C9.23858 3.46583 7.4305 1.65775 5.20012 1.65775Z" fill="#E6007F"/>
</svg>
