<svg width="18" height="18" viewBox="0 0 18 18" fill="none" xmlns="http://www.w3.org/2000/svg">
<path fill-rule="evenodd" clip-rule="evenodd" d="M3.1338 0.666558H14.9505V0.674892C15.9463 0.657562 16.8507 1.25291 17.2285 2.17442C17.6064 3.09593 17.3802 4.15485 16.6588 4.84156L12.6838 8.81656C12.2413 9.2598 11.9875 9.85704 11.9755 10.4832V14.1499C11.9742 14.9102 11.6163 15.626 11.0088 16.0832L9.97547 16.8582C9.24472 17.4143 8.26135 17.5064 7.44004 17.0958C6.61872 16.6851 6.1024 15.8431 6.1088 14.9249V10.4832C6.09677 9.85704 5.84294 9.2598 5.40047 8.81656L1.42547 4.84156C0.697765 4.15588 0.467452 3.09287 0.846103 2.16748C1.22475 1.2421 2.13417 0.645444 3.1338 0.666558ZM16.0338 2.64156C15.854 2.20188 15.4255 1.91513 14.9505 1.91656H3.1338C2.65877 1.91513 2.2303 2.20188 2.05047 2.64156C1.86482 3.07911 1.96748 3.58578 2.3088 3.91656L6.30047 7.89156C6.99136 8.57666 7.37861 9.51024 7.37547 10.4832V14.9249C7.37102 15.2321 7.4888 15.5285 7.70292 15.7489C7.91703 15.9692 8.20992 16.0955 8.51714 16.0999C8.7682 16.0988 9.01167 16.0137 9.2088 15.8582L10.2421 15.0832C10.5359 14.8629 10.7088 14.5171 10.7088 14.1499V10.4832C10.7101 9.50782 11.1035 8.57389 11.8005 7.89156L15.7755 3.91656C16.1168 3.58578 16.2194 3.07911 16.0338 2.64156Z" fill="#454545"/>
</svg>
