<svg width="84" height="88" viewBox="0 0 84 88" fill="none" xmlns="http://www.w3.org/2000/svg">
<path d="M34.9644 56.2304C35.6827 54.0075 36.6806 51.9104 37.9165 49.9804H9.71013C4.53505 49.9804 0.339844 54.1758 0.339844 59.3508V61.7579C0.339844 65.4775 1.66697 69.0754 4.08268 71.9041C10.6089 79.5471 20.5506 83.3187 33.6586 83.3187C36.1581 83.3187 38.5427 83.1812 40.8106 82.9062C39.1815 81.1366 37.7844 79.1491 36.669 76.9925C35.6915 77.0433 34.6881 77.0687 33.6586 77.0687C22.2488 77.0687 14.0576 73.9612 8.83551 67.8458C7.38614 66.1483 6.58984 63.9895 6.58984 61.7579V59.3508C6.58984 57.6275 7.98684 56.2304 9.71013 56.2304H34.9644ZM33.6586 0C45.1644 0 54.4919 9.32738 54.4919 20.8333C54.4919 32.3393 45.1644 41.6666 33.6586 41.6666C22.1525 41.6666 12.8251 32.3393 12.8251 20.8333C12.8251 9.32738 22.1525 0 33.6586 0ZM33.6586 6.25C25.6043 6.25 19.0751 12.7792 19.0751 20.8333C19.0751 28.8875 25.6043 35.4166 33.6586 35.4166C41.7127 35.4166 48.2419 28.8875 48.2419 20.8333C48.2419 12.7792 41.7127 6.25 33.6586 6.25ZM37.8236 64.567C37.8236 77.2237 48.0835 87.4837 60.7402 87.4837C73.3969 87.4837 83.6569 77.2237 83.6569 64.567C83.6569 51.9104 73.3969 41.6504 60.7402 41.6504C48.0835 41.6504 37.8236 51.9104 37.8236 64.567ZM73.2402 49.9837C74.3906 49.9837 75.3235 50.9166 75.3235 52.067V60.4004C75.3235 61.5508 74.3906 62.4837 73.2402 62.4837H64.9069C63.7565 62.4837 62.8236 61.5508 62.8236 60.4004C62.8236 59.25 63.7565 58.317 64.9069 58.317H69.0748C67.1719 55.7837 64.146 54.1504 60.7402 54.1504C57.2677 54.1504 54.1915 55.8475 52.2956 58.467C51.6206 59.3991 50.3181 59.6079 49.386 58.9329C48.4544 58.2583 48.2456 56.9558 48.9202 56.0237C51.5661 52.3687 55.8748 49.9837 60.7402 49.9837C64.8227 49.9837 68.5115 51.6616 71.1569 54.3612V52.067C71.1569 50.9166 72.0898 49.9837 73.2402 49.9837ZM50.3236 74.7729V77.067C50.3236 78.2175 49.3906 79.1504 48.2402 79.1504C47.0898 79.1504 46.1569 78.2175 46.1569 77.067V68.7337C46.1569 67.5833 47.0898 66.6504 48.2402 66.6504H56.5736C57.724 66.6504 58.6569 67.5833 58.6569 68.7337C58.6569 69.8841 57.724 70.817 56.5736 70.817H52.406C54.3085 73.3504 57.3348 74.9837 60.7402 74.9837C63.9331 74.9837 66.7894 73.5495 68.7035 71.2829C69.4456 70.4037 70.7602 70.2929 71.6394 71.035C72.5186 71.7775 72.6294 73.092 71.8869 73.9708C69.2152 77.1354 65.2119 79.1504 60.7402 79.1504C56.6581 79.1504 52.969 77.4725 50.3236 74.7729Z" fill="#85B804"/>
</svg>
