<svg width="19" height="21" viewBox="0 0 19 21" fill="none" xmlns="http://www.w3.org/2000/svg">
<path d="M8.9103 8.94769C10.633 10.6704 10.8132 13.3515 9.45099 15.2747L9.30957 15.4644L13.5277 19.6835L13.6025 19.7702C13.8272 20.0731 13.8023 20.5026 13.5277 20.7772C13.2532 21.0517 12.8235 21.0767 12.5207 20.8521L12.434 20.7772L8.17677 16.52C6.26097 17.8118 3.63804 17.6101 1.94298 15.915C0.0190071 13.9911 0.0190071 10.8717 1.94298 8.94769C3.86695 7.02376 6.98633 7.02376 8.9103 8.94769ZM10.6307 0C11.2273 0 11.7996 0.236932 12.2216 0.658707L15.034 3.46961L17.8421 6.28199C18.2634 6.70392 18.5 7.2758 18.5 7.87206V17.7532C18.5 18.996 17.4925 20.0036 16.2496 20.0036L14.74 20.0042C14.7026 19.7111 14.5917 19.4249 14.4058 19.1743L14.2848 19.03L13.758 18.5023L16.2496 18.5033C16.6639 18.5033 16.9997 18.1674 16.9997 17.7532L16.9989 8.00442L12.7522 8.00532C11.5611 8.00532 10.5862 7.07999 10.507 5.90899L10.5018 5.75491V1.50027H4.75076C4.33647 1.50027 4.00062 1.83612 4.00062 2.2504L4.00029 6.67236C3.48132 6.79549 2.97573 6.98942 2.49892 7.25417L2.50036 2.2504C2.50036 1.00754 3.5079 0 4.75076 0H10.6307ZM3.03667 10.0414C1.71674 11.3613 1.71674 13.5014 3.03667 14.8213C4.35662 16.1413 6.49666 16.1413 7.8166 14.8213C9.13654 13.5014 9.13654 11.3613 7.8166 10.0414C6.49666 8.72145 4.35662 8.72145 3.03667 10.0414ZM12.002 2.56045V5.75491C12.002 6.13468 12.2843 6.44852 12.6504 6.49819L12.7522 6.50505L15.9437 6.50416L12.002 2.56045Z" fill="#2196F3"/>
</svg>
