<svg width="24" height="41" viewBox="0 0 24 41" fill="none" xmlns="http://www.w3.org/2000/svg">
<path d="M3.66331 0.391369C4.49138 0.394367 5.28487 0.72374 5.87164 1.30804L22.5383 17.9747C23.1287 18.5579 23.4609 19.3532 23.4609 20.183C23.4609 21.0129 23.1287 21.8082 22.5383 22.3914L5.87164 39.058C5.0926 39.8941 3.91933 40.2382 2.81211 39.9555C1.70488 39.6727 0.8403 38.8081 0.557535 37.7009C0.274771 36.5937 0.618919 35.4204 1.45498 34.6414L15.9133 20.183L1.45498 5.7247C0.864616 5.14151 0.532349 4.34621 0.532349 3.51637C0.532349 2.68652 0.864616 1.89123 1.45498 1.30804C2.04175 0.72374 2.83524 0.394367 3.66331 0.391369Z" fill="#454545"/>
</svg>
