<svg width="24" height="41" viewBox="0 0 24 41" fill="none" xmlns="http://www.w3.org/2000/svg">
<path d="M20.3367 40.2922C19.5086 40.2892 18.7151 39.9599 18.1284 39.3756L1.46169 22.7089C0.871331 22.1257 0.539062 21.3304 0.539062 20.5006C0.539062 19.6707 0.871331 18.8754 1.46169 18.2922L18.1284 1.62556C18.9074 0.789506 20.0807 0.445356 21.1879 0.728122C22.2951 1.01089 23.1597 1.87547 23.4425 2.98269C23.7252 4.08991 23.3811 5.26318 22.545 6.04223L8.08669 20.5006L22.545 34.9589C23.1354 35.5421 23.4677 36.3374 23.4677 37.1672C23.4677 37.9971 23.1354 38.7924 22.545 39.3756C21.9583 39.9599 21.1648 40.2892 20.3367 40.2922Z" fill="#454545"/>
</svg>
