<svg width="16" height="16" viewBox="0 0 16 16" fill="none" xmlns="http://www.w3.org/2000/svg">
<path fill-rule="evenodd" clip-rule="evenodd" d="M10.5865 1.14676C10.5865 0.791723 10.8743 0.503906 11.2294 0.503906H14.6579C15.013 0.503906 15.3008 0.791723 15.3008 1.14676V4.57533C15.3008 4.93038 15.013 5.21819 14.6579 5.21819C14.3029 5.21819 14.0151 4.93038 14.0151 4.57533V2.69483L10.5998 6.0979C11.3955 7.08878 11.8722 8.34824 11.8722 9.71819C11.8722 12.9135 9.28185 15.5039 6.0865 15.5039C2.89113 15.5039 0.300781 12.9135 0.300781 9.71819C0.300781 6.52284 2.89113 3.93248 6.0865 3.93248C7.44815 3.93248 8.70076 4.40349 9.68885 5.19055L13.102 1.78962H11.2294C10.8743 1.78962 10.5865 1.5018 10.5865 1.14676ZM6.0865 5.21819C3.60121 5.21819 1.5865 7.23292 1.5865 9.71819C1.5865 12.2035 3.60121 14.2182 6.0865 14.2182C8.57177 14.2182 10.5865 12.2035 10.5865 9.71819C10.5865 8.47145 10.0804 7.34418 9.26071 6.52849L9.2607 6.52847C8.44635 5.718 7.32539 5.21819 6.0865 5.21819Z" fill="#2196F3"/>
</svg>
