<svg width="22" height="22" viewBox="0 0 22 22" fill="none" xmlns="http://www.w3.org/2000/svg">
<path d="M9.8138 13.9972C9.9862 13.4637 10.2257 12.9604 10.5223 12.4972H2.75278C1.51076 12.4972 0.503906 13.5041 0.503906 14.7461V15.3238C0.503906 16.2165 0.822416 17.08 1.40219 17.7589C2.96849 19.5932 5.3545 20.4984 8.5004 20.4984C9.4312 20.4984 10.2957 20.4191 11.0922 20.26C10.733 19.8467 10.4251 19.3877 10.1786 18.8927C9.6552 18.9631 9.096 18.9984 8.5004 18.9984C5.76206 18.9984 3.79618 18.2526 2.54287 16.7849C2.19502 16.3775 2.00391 15.8594 2.00391 15.3238V14.7461C2.00391 14.3325 2.33919 13.9972 2.75278 13.9972H9.8138ZM8.5004 0.501953C11.2618 0.501953 13.5004 2.74052 13.5004 5.50195C13.5004 8.26337 11.2618 10.5019 8.5004 10.5019C5.73894 10.5019 3.50036 8.26337 3.50036 5.50195C3.50036 2.74052 5.73894 0.501953 8.5004 0.501953ZM8.5004 2.00195C6.56737 2.00195 5.00036 3.56895 5.00036 5.50195C5.00036 7.43494 6.56737 9.00194 8.5004 9.00194C10.4334 9.00194 12.0004 7.43494 12.0004 5.50195C12.0004 3.56895 10.4334 2.00195 8.5004 2.00195ZM21.5 15.998C21.5 19.0356 19.0376 21.498 16 21.498C12.9624 21.498 10.5 19.0356 10.5 15.998C10.5 12.9604 12.9624 10.498 16 10.498C19.0376 10.498 21.5 12.9604 21.5 15.998ZM14.8536 13.8516C15.0488 13.6563 15.0488 13.3397 14.8536 13.1444C14.6583 12.9492 14.3417 12.9492 14.1464 13.1444L12.6464 14.6444C12.4512 14.8397 12.4512 15.1563 12.6464 15.3516L14.1464 16.8516C14.3417 17.0468 14.6583 17.0468 14.8536 16.8516C15.0488 16.6563 15.0488 16.3397 14.8536 16.1444L14.2071 15.498H16.25C17.4926 15.498 18.5 16.5054 18.5 17.748V17.998C18.5 18.2741 18.7239 18.498 19 18.498C19.2761 18.498 19.5 18.2741 19.5 17.998V17.748C19.5 15.9531 18.0449 14.498 16.25 14.498H14.2071L14.8536 13.8516Z" fill="#85B804"/>
</svg>
