<svg width="18" height="18" viewBox="0 0 18 18" fill="none" xmlns="http://www.w3.org/2000/svg">
<path d="M9.0013 0.666016C13.6036 0.666016 17.3346 4.39697 17.3346 8.99935C17.3346 13.6017 13.6036 17.3327 9.0013 17.3327C4.39893 17.3327 0.667969 13.6017 0.667969 8.99935C0.667969 4.39697 4.39893 0.666016 9.0013 0.666016ZM9.0013 4.83268C8.68489 4.83268 8.42339 5.06781 8.38197 5.37287L8.3763 5.45768V8.37435H5.45964C5.11446 8.37435 4.83464 8.65418 4.83464 8.99935C4.83464 9.31577 5.06976 9.57727 5.37483 9.61868L5.45964 9.62435H8.3763V12.541C8.3763 12.8862 8.65614 13.166 9.0013 13.166C9.31772 13.166 9.57922 12.9308 9.62064 12.6258L9.6263 12.541V9.62435H12.543C12.8881 9.62435 13.168 9.34452 13.168 8.99935C13.168 8.68293 12.9328 8.42143 12.6278 8.38002L12.543 8.37435H9.6263V5.45768C9.6263 5.11251 9.34647 4.83268 9.0013 4.83268Z" fill="white"/>
</svg>
