<svg width="12" height="16" viewBox="0 0 12 16" fill="none" xmlns="http://www.w3.org/2000/svg">
<path d="M10.9989 6.95843H0.998861C0.875696 6.95927 0.755102 6.9232 0.65262 6.85488C0.550137 6.78656 0.470462 6.68911 0.423861 6.5751C0.375807 6.46082 0.362827 6.33483 0.386569 6.21315C0.410311 6.09147 0.469703 5.9796 0.557194 5.89177L5.5572 0.891768C5.67438 0.774726 5.83324 0.708984 5.99886 0.708984C6.16449 0.708984 6.32334 0.774726 6.44053 0.891768L11.4405 5.89177C11.528 5.9796 11.5874 6.09147 11.6112 6.21315C11.6349 6.33483 11.6219 6.46082 11.5739 6.5751C11.5273 6.68911 11.4476 6.78656 11.3451 6.85488C11.2426 6.9232 11.122 6.95927 10.9989 6.95843ZM2.50719 5.70843H9.49053L5.99886 2.21677L2.50719 5.70843ZM5.99886 15.2918C5.91674 15.2922 5.83538 15.2761 5.75953 15.2447C5.68369 15.2132 5.6149 15.1669 5.5572 15.1084L0.557194 10.1084C0.469703 10.0206 0.410311 9.90873 0.386569 9.78705C0.362827 9.66537 0.375807 9.53938 0.423861 9.4251C0.470462 9.31109 0.550137 9.21364 0.65262 9.14532C0.755102 9.077 0.875696 9.04093 0.998861 9.04177H10.9989C11.122 9.04093 11.2426 9.077 11.3451 9.14532C11.4476 9.21364 11.5273 9.31109 11.5739 9.4251C11.6219 9.53938 11.6349 9.66537 11.6112 9.78705C11.5874 9.90873 11.528 10.0206 11.4405 10.1084L6.44053 15.1084C6.38282 15.1669 6.31403 15.2132 6.23819 15.2447C6.16235 15.2761 6.08098 15.2922 5.99886 15.2918ZM2.50719 10.2918L5.99886 13.7834L9.49053 10.2918H2.50719Z" fill="black"/>
</svg>
