<svg width="80" height="80" viewBox="0 0 80 80" fill="none" xmlns="http://www.w3.org/2000/svg">
<g clip-path="url(#clip0_568_87210)">
<path fill-rule="evenodd" clip-rule="evenodd" d="M37.7346 0.160224C29.4173 0.617412 21.5071 3.67491 14.844 9.00804C13.141 10.3712 10.37 13.1424 9.00886 14.8437C7.47589 16.7596 5.78151 19.3338 5.78151 19.7466C5.78151 20.2082 6.39808 20.7812 6.89448 20.7812C7.4212 20.7812 7.67198 20.5543 8.36261 19.453C11.1575 14.9966 16.1385 10.2473 20.9378 7.46319C25.5642 4.77944 30.6882 3.07585 35.8596 2.50226C37.9656 2.26866 42.4787 2.31085 44.6925 2.58476C54.786 3.83413 64.009 9.18085 70.1329 17.3329C75.1332 23.9896 77.6565 31.5915 77.6565 39.9999C77.6565 44.4204 77.1103 47.8669 75.7618 51.953C72.0782 63.1159 63.1589 72.0332 51.9534 75.7562C47.8879 77.1069 44.4324 77.6562 40.0003 77.6562C35.5725 77.6562 32.1121 77.1068 28.0593 75.7602C22.434 73.8913 17.6314 70.9144 13.3514 66.6443C7.31901 60.6255 3.63026 53.0637 2.5673 44.5371C2.10151 40.8008 2.33558 35.6673 3.14417 31.8812C3.4223 30.5791 4.71839 26.5191 5.33042 25.033C5.51214 24.5918 5.50854 24.4596 5.30542 24.0976C4.95479 23.4729 4.3223 23.2993 3.80495 23.6855C2.97605 24.3044 1.28683 29.4323 0.635576 33.3073C-2.56005 52.3204 8.1562 70.7649 26.3284 77.529C33.504 80.1999 42.3162 80.6271 49.9221 78.6727C60.5075 75.953 69.4728 69.0338 74.9254 59.3759C77.7995 54.2851 79.844 46.9963 79.844 41.8405C79.844 41.1343 79.9095 40.6249 80.0003 40.6249C80.0862 40.6249 80.1565 40.3043 80.1565 39.9126C80.1565 39.5208 80.097 39.2371 80.0242 39.2821C79.9514 39.3271 79.8487 38.4348 79.796 37.2991C79.5439 31.8501 77.7379 25.6443 74.9665 20.703C68.9698 10.0108 58.6275 2.66413 46.719 0.637412C45.1173 0.364756 44.2701 0.288974 40.7034 0.0985056C40.1878 0.0710056 38.8518 0.0988181 37.7346 0.160224ZM37.8909 6.42507C27.0026 7.04007 16.9734 13.1307 11.162 22.6569C8.8662 26.4205 7.26417 30.9594 6.64042 35.4687C6.31417 37.8265 6.31417 42.1734 6.64042 44.5312C7.66183 51.9143 10.9151 58.4263 16.2445 63.7557C21.7203 69.2315 28.2315 72.4116 36.0776 73.4424C37.7668 73.6643 42.2337 73.6643 43.9229 73.4424C54.0967 72.1059 62.7681 66.7054 68.2673 58.2812C69.5112 56.3757 70.9378 53.4985 70.9378 52.8954C70.9378 52.0249 69.9303 51.5057 69.2832 52.0427C69.1462 52.1565 68.626 53.0618 68.1275 54.0544C66.4487 57.3965 64.5635 59.959 61.8534 62.5827C59.1954 65.156 56.9232 66.7371 53.5629 68.3513C50.804 69.6768 48.4445 70.4396 45.2346 71.044C43.5307 71.3648 38.4129 71.4932 36.4659 71.2638C27.0807 70.1588 18.6856 64.944 13.5473 57.0274C11.0906 53.2423 9.32776 48.3568 8.75792 43.754C8.54714 42.051 8.54714 37.9488 8.75792 36.2458C9.45901 30.5829 11.8271 24.8852 15.2831 20.5468C20.5459 13.9399 28.116 9.71913 36.4659 8.73601C38.4537 8.50194 43.5312 8.63554 45.3114 8.96882C48.5253 9.57069 51.2993 10.4929 54.0628 11.8785C63.5853 16.6527 70.0135 25.8437 71.2653 36.4738C71.4965 38.4387 71.3515 43.6877 71.021 45.3124C70.5803 47.4788 70.5489 48.094 70.8618 48.4398C71.2306 48.8474 72.0509 48.8477 72.4195 48.4404C72.7296 48.0976 73.1701 46.1816 73.4403 43.9993C73.6946 41.9457 73.6537 37.5876 73.3604 35.4687C71.6496 23.1138 63.2542 12.6996 51.5101 8.36444C47.3375 6.82429 42.6478 6.15647 37.8909 6.42507ZM50.5082 19.9288C48.9075 20.3599 47.6201 21.2596 46.7307 22.5691C46.4939 22.9177 44.1681 27.2987 41.5621 32.3046C38.9564 37.3105 36.7687 41.4062 36.7007 41.4062C36.6329 41.4062 35.2823 39.8041 33.6995 37.8463C32.1167 35.8883 30.5654 34.091 30.2525 33.8523C28.31 32.3707 25.3998 32.0432 23.2973 33.0694C22.2667 33.5726 20.9409 34.7752 20.4157 35.6833C19.7085 36.9065 19.4893 37.8735 19.5665 39.4302C19.6589 41.2938 20.02 42.084 21.7923 44.2998C23.4415 46.3616 23.6574 46.5624 24.225 46.5624C24.7087 46.5624 25.3128 45.9457 25.3128 45.4516C25.3128 45.2937 24.6703 44.3715 23.8851 43.4024C22.014 41.0934 21.6564 40.3294 21.7531 38.8498C21.8721 37.0265 22.7214 35.7794 24.352 35.0329C25.0779 34.7005 25.354 34.6587 26.4173 34.7202C28.3654 34.833 28.5665 35.0051 32.6835 40.0833C34.8585 42.7662 36.38 44.5093 36.6245 44.599C36.9001 44.6998 37.1381 44.6832 37.3957 44.5454C37.6648 44.4013 39.2603 41.4816 43.1421 34.0287C48.0021 24.6979 48.5886 23.646 49.2759 23.0268C51.4346 21.0818 54.7596 21.7485 56.206 24.416C56.4092 24.7905 56.4809 25.2868 56.4825 26.328L56.4846 27.7343L49.1409 41.8477C44.6606 50.458 41.5709 56.2223 41.2171 56.6307C39.7382 58.3374 36.897 58.5629 35.1978 57.1083C34.8384 56.8007 33.131 54.8008 31.4035 52.6641C29.1634 49.893 28.1456 48.7496 27.854 48.6765C27.289 48.5348 26.6557 49.0237 26.5929 49.6502C26.5514 50.0648 26.8793 50.5441 29.0404 53.2285C33.6298 58.9288 33.8945 59.1973 35.5812 59.8599C36.8167 60.3452 39.0853 60.3638 40.2493 59.8982C41.329 59.4662 42.3701 58.7273 43.0234 57.9288C43.6642 57.146 58.1062 29.5148 58.5098 28.2994C58.9471 26.9829 58.8018 24.908 58.1804 23.5937C56.7745 20.6204 53.5896 19.0991 50.5082 19.9288ZM0.0449515 40.078C0.0462015 40.5077 0.0765139 40.6649 0.112451 40.4274C0.148233 40.1899 0.147295 39.8383 0.110264 39.6462C0.0732327 39.454 0.0438577 39.6483 0.0449515 40.078Z" fill="#85B804"/>
</g>
<defs>
<clipPath id="clip0_568_87210">
<rect width="80" height="80" fill="white"/>
</clipPath>
</defs>
</svg>
