<svg width="20" height="20" viewBox="0 0 20 20" fill="none" xmlns="http://www.w3.org/2000/svg">
<path d="M15.0008 8.95843H5.00081C4.87765 8.95927 4.75706 8.9232 4.65457 8.85488C4.55209 8.78656 4.47242 8.68911 4.42581 8.5751C4.37776 8.46082 4.36478 8.33483 4.38852 8.21315C4.41226 8.09147 4.47166 7.9796 4.55915 7.89177L9.55915 2.89177C9.67634 2.77473 9.83519 2.70898 10.0008 2.70898C10.1664 2.70898 10.3253 2.77473 10.4425 2.89177L15.4425 7.89177C15.53 7.9796 15.5894 8.09147 15.6131 8.21315C15.6368 8.33483 15.6239 8.46082 15.5758 8.5751C15.5292 8.68911 15.4495 8.78656 15.3471 8.85488C15.2446 8.9232 15.124 8.95927 15.0008 8.95843ZM6.50915 7.70843H13.4925L10.0008 4.21677L6.50915 7.70843ZM10.0008 17.2918C9.9187 17.2922 9.83733 17.2761 9.76149 17.2447C9.68564 17.2132 9.61685 17.1669 9.55915 17.1084L4.55915 12.1084C4.47166 12.0206 4.41226 11.9087 4.38852 11.7871C4.36478 11.6654 4.37776 11.5394 4.42581 11.4251C4.47242 11.3111 4.55209 11.2136 4.65457 11.1453C4.75706 11.077 4.87765 11.0409 5.00081 11.0418H15.0008C15.124 11.0409 15.2446 11.077 15.3471 11.1453C15.4495 11.2136 15.5292 11.3111 15.5758 11.4251C15.6239 11.5394 15.6368 11.6654 15.6131 11.7871C15.5894 11.9087 15.53 12.0206 15.4425 12.1084L10.4425 17.1084C10.3848 17.1669 10.316 17.2132 10.2401 17.2447C10.1643 17.2761 10.0829 17.2922 10.0008 17.2918ZM6.50915 12.2918L10.0008 15.7834L13.4925 12.2918H6.50915Z" fill="black"/>
</svg>
