<svg width="150" height="150" viewBox="0 0 150 150" fill="none" xmlns="http://www.w3.org/2000/svg">
<path d="M27.4468 109.149V136.277L54.5745 129.574L75 150L95.4255 129.574L122.553 136.277V109.149L150 102.128L136.277 75L150 47.8723L122.553 40.8511V13.7234L95.4255 20.4255L75 0L54.5745 20.4255L27.4468 13.7234V40.8511L0 47.8723L13.7234 75L0 102.128L27.4468 109.149ZM25.8511 68.9362L19.7872 56.4894L30.6383 53.9362C33.8298 53.2979 36.3298 51.7553 38.1383 49.3085C39.9468 46.8617 40.8511 44.0426 40.8511 40.8511V31.2766L51.0638 34.1489H54.5745C58.1915 34.1489 61.383 32.766 64.1489 30L75 19.1489L85.8511 30C88.617 32.766 91.8085 34.1489 95.4255 34.1489C96.7021 34.1489 97.8723 33.9362 98.9362 33.5106L109.149 31.2766V40.8511C109.149 44.0426 110.053 46.8617 111.862 49.3085C113.67 51.7553 116.17 53.2979 119.362 53.9362L130.213 56.4894L124.149 68.9362C122.021 72.9787 122.021 77.0213 124.149 81.0638L130.213 93.5106L119.362 96.0638C116.17 96.7021 113.67 98.2447 111.862 100.691C110.053 103.138 109.149 105.957 109.149 109.149V118.723L98.9362 115.851H95.4255C91.8085 115.851 88.617 117.234 85.8511 120L75 130.851L64.1489 120C61.383 117.234 58.1915 115.851 54.5745 115.851C53.2979 115.851 52.1277 116.064 51.0638 116.489L40.8511 118.723V109.149C40.8511 105.957 39.9468 103.138 38.1383 100.691C36.3298 98.2447 33.8298 96.7021 30.6383 96.0638L19.7872 93.5106L25.8511 81.0638C27.9787 77.0213 27.9787 72.9787 25.8511 68.9362ZM68.2979 98.2979L100.213 66.0638C103.191 63.0851 103.191 59.8936 100.213 56.4894C97.0213 53.7234 93.8298 53.7234 90.6383 56.4894L68.2979 79.1489L59.3617 70.2128C56.1702 67.4468 52.9787 67.4468 49.7872 70.2128C47.0213 73.4043 47.0213 76.5957 49.7872 79.7872L68.2979 98.2979Z" fill="#469D89"/>
</svg>
