<svg width="22" height="21" viewBox="0 0 22 21" fill="none" xmlns="http://www.w3.org/2000/svg">
<path d="M15.9984 9.99542C19.0359 9.99542 21.4984 12.4578 21.4984 15.4954C21.4984 18.5329 19.0359 20.9954 15.9984 20.9954C12.9608 20.9954 10.4984 18.5329 10.4984 15.4954C10.4984 12.4578 12.9608 9.99542 15.9984 9.99542ZM10.5206 11.9947C10.2239 12.458 9.98444 12.9614 9.81204 13.495L2.75195 13.4953C2.33773 13.4953 2.00195 13.8311 2.00195 14.2453V15.1526C2.00195 15.8083 2.28794 16.4313 2.78511 16.8587C4.0432 17.9404 5.93921 18.4964 8.49844 18.4964C9.09724 18.4964 9.65984 18.466 10.1865 18.4055C10.4354 18.9056 10.7492 19.3694 11.1155 19.7859C10.3133 19.9266 9.44034 19.9964 8.49844 19.9964C5.60891 19.9964 3.37009 19.3398 1.80722 17.9961C0.978603 17.2838 0.501953 16.2454 0.501953 15.1526V14.2453C0.501953 13.0026 1.50931 11.9953 2.75195 11.9953L10.5206 11.9947ZM19.3076 13.2476L13.7506 18.8046C14.3912 19.2405 15.165 19.4954 15.9984 19.4954C18.2075 19.4954 19.9984 17.7045 19.9984 15.4954C19.9984 14.662 19.7435 13.8882 19.3076 13.2476ZM15.9984 11.4954C13.7892 11.4954 11.9984 13.2862 11.9984 15.4954C11.9984 16.3287 12.2532 17.1025 12.6892 17.7431L18.2461 12.1862C17.6055 11.7502 16.8317 11.4954 15.9984 11.4954ZM8.49844 0C11.2598 0 13.4984 2.23858 13.4984 5C13.4984 7.76143 11.2598 10 8.49844 10C5.73698 10 3.4984 7.76143 3.4984 5C3.4984 2.23858 5.73698 0 8.49844 0ZM8.49844 1.5C6.56541 1.5 4.9984 3.06701 4.9984 5C4.9984 6.933 6.56541 8.50002 8.49844 8.50002C10.4314 8.50002 11.9984 6.933 11.9984 5C11.9984 3.06701 10.4314 1.5 8.49844 1.5Z" fill="#ED5554"/>
</svg>
