<svg width="80" height="80" viewBox="0 0 80 80" fill="none" xmlns="http://www.w3.org/2000/svg">
<g clip-path="url(#clip0_568_87203)">
<path fill-rule="evenodd" clip-rule="evenodd" d="M37.6558 0.170687C34.3925 0.589125 31.1488 1.92397 28.4371 3.96397C25.8699 5.89522 25.175 6.95944 25.9432 7.78381C26.5138 8.39631 27.0994 8.24366 28.2274 7.1885C32.3224 3.35787 37.4039 1.73491 42.6427 2.58444C49.2571 3.65709 54.4642 8.39569 56.2657 14.9812C56.5044 15.8543 56.6135 16.8302 56.6736 18.6337C56.7188 19.9872 56.7155 21.0946 56.6666 21.0946C56.0635 21.0946 54.8305 20.6676 54.4527 20.3279C53.638 19.5954 53.4961 19.5254 52.0336 19.134C50.3963 18.6958 49.6319 18.289 48.3683 17.1833C47.2985 16.2471 46.6141 15.936 45.6446 15.9452C44.5766 15.9554 43.9807 16.2274 42.4244 17.4154C40.7897 18.6633 38.7207 19.7062 36.9527 20.173C35.2143 20.6321 32.0046 20.6579 30.2339 20.2269C28.4374 19.7897 27.2727 19.8294 26.3696 20.3587C25.9722 20.5915 25.4422 20.7821 25.1919 20.7821C24.9416 20.7821 24.4091 20.8807 24.0088 21.0012L23.2808 21.2202L23.2863 19.3215C23.293 16.9863 23.5561 15.4505 24.3242 13.2629L24.9158 11.5787L24.5905 11.1413C24.1491 10.5476 23.3282 10.4671 22.8546 10.9712C22.4152 11.439 21.4916 14.2238 21.1814 16.0165C21.0246 16.9232 20.9378 18.3887 20.9375 20.1415C20.9371 22.7907 20.9261 22.8827 20.5074 23.7352C19.9046 24.9626 19.9064 26.4502 20.5124 27.6129L20.9371 28.428L20.9394 34.0191C20.9419 40.2068 21.0083 40.7913 21.9144 42.6119C22.5347 43.8583 23.8553 45.3429 25.0049 46.0857C25.4805 46.3932 26.7313 47.0244 27.7844 47.4887C28.8375 47.9529 29.6436 48.3827 29.5758 48.4438C29.5082 48.5051 27.2378 49.2038 24.5308 49.9966C21.755 50.8096 19.2002 51.6512 18.6714 51.9269C18.1558 52.1957 17.3068 52.8391 16.7847 53.3568C15.5038 54.6265 14.9382 55.8279 14.5392 58.1258C14.3677 59.1141 13.5967 62.9863 12.8261 66.7307C11.2407 74.4337 11.0155 75.8644 11.1666 77.2757C11.2985 78.5058 11.7189 79.1783 12.6511 79.6493C13.3428 79.9987 13.3903 80.0008 20.5585 80.0008C27.6175 80.0008 27.7786 79.994 28.1816 79.6769C28.751 79.2291 28.751 78.4288 28.1816 77.981C27.82 77.6965 27.5541 77.6571 25.9941 77.6571H24.2183V71.903V66.1491L23.8568 65.8093C23.4105 65.3901 22.8088 65.374 22.3216 65.768C21.9574 66.0626 21.9521 66.1099 21.905 69.4399L21.8574 72.8133H17.9132H13.9691L15.2582 66.5243C15.9672 63.0652 16.6608 59.5672 16.7996 58.7508C16.9383 57.9344 17.218 56.8994 17.4211 56.4508C17.8139 55.5835 18.9436 54.3705 19.748 53.9524C20.313 53.6588 28.9419 51.0787 29.0378 51.1746C29.0733 51.2101 29.1499 52.3585 29.208 53.7268C29.3025 55.9557 29.3541 56.2932 29.7041 56.9733C30.3927 58.3113 31.7125 59.0644 33.3589 59.059C34.3672 59.0557 35.1719 58.6713 36.2967 57.6552L37.2032 56.8365L37.601 57.2077C37.8199 57.4119 38.1399 57.7757 38.3121 58.0162L38.6253 58.4535L38.2188 59.0402L37.8121 59.6271V68.6421V77.6571H35.3194C33.7891 77.6571 32.6761 77.7257 32.4366 77.8349C31.6493 78.1937 31.6478 79.4637 32.4342 79.8221C32.7213 79.9527 37.3736 80.0008 49.7394 80.0008H66.6521L67.348 79.6493C68.2802 79.1783 68.7007 78.5058 68.8325 77.2757C68.9836 75.8644 68.7585 74.4337 67.173 66.7307C66.4024 62.9863 65.6296 59.1166 65.4557 58.1313C65.2511 56.9718 64.968 55.9796 64.6532 55.3188C64.0421 54.0363 62.5911 52.5529 61.3224 51.9132C60.8097 51.6548 58.1753 50.7935 55.4683 49.9993C52.7613 49.2051 50.4927 48.5068 50.4269 48.4476C50.3613 48.3885 51.3005 47.8941 52.5142 47.349C55.558 45.9823 57.1169 44.6624 58.118 42.6048C59.0128 40.7651 59.0621 40.3221 59.0621 34.0974V28.4158L59.4917 27.6849C59.8639 27.0516 59.9213 26.7869 59.9208 25.704C59.9202 24.648 59.8536 24.3246 59.4911 23.6208C59.0705 22.8041 59.0621 22.7329 59.0621 20.0085C59.0621 18.2013 58.9775 16.7441 58.8202 15.8423C57.9322 10.7501 54.8424 6.03756 50.5294 3.19725C46.7272 0.693187 42.0872 -0.397594 37.6558 0.170687ZM44.8222 18.5563C44.5958 18.7063 44.0066 19.1368 43.5127 19.513C41.6857 20.9052 39.1532 22.0788 36.8363 22.6069C35.2728 22.9633 31.7383 22.9562 30.1558 22.5932C27.9767 22.0935 27.8503 22.0932 27.3353 22.5866L26.8746 23.028V27.6147C26.8746 31.1457 26.9302 32.471 27.1163 33.3719C28.4749 39.9491 34.7755 44.5394 41.3761 43.761C46.0361 43.2115 49.9142 40.4833 51.8763 36.3747C53.0105 33.9996 53.1386 33.1982 53.2353 27.8763C53.3218 23.1244 53.256 22.309 52.7521 21.8908C52.6418 21.7994 51.9266 21.5433 51.1627 21.3221C49.4116 20.8146 48.2988 20.2229 47.0541 19.1374C45.9857 18.2057 45.5308 18.0872 44.8222 18.5563ZM23.5703 23.7318C22.3161 24.5273 22.028 25.9788 22.915 27.033C23.3075 27.4994 24.0363 27.9696 24.3667 27.9696C24.4741 27.9696 24.5308 27.158 24.5308 25.6258C24.5308 24.3368 24.4742 23.2821 24.4052 23.2821C24.336 23.2821 23.9603 23.4844 23.5703 23.7318ZM55.6246 25.6291C55.6246 26.9165 55.6844 27.9696 55.7577 27.9696C56.0442 27.9696 56.9633 27.2321 57.3005 26.7318C58.0694 25.5908 57.4932 24.0833 56.0542 23.4715L55.6246 23.2888V25.6291ZM23.31 35.1962L23.3589 40.2352L23.8466 41.2673C24.3936 42.4246 25.2066 43.3996 26.1878 44.0746C26.5503 44.324 28.0307 45.0466 29.4774 45.6804C31.9283 46.754 32.1318 46.8169 32.4599 46.6019C32.7622 46.4038 32.8119 46.2355 32.8107 45.4126L32.8094 44.454L31.6885 43.7624C29.5396 42.4365 27.3588 40.0354 26.1988 37.7179C25.1886 35.7001 24.5316 33.1733 24.531 31.3052C24.5308 30.5427 24.5047 30.4912 24.0388 30.3287C23.7682 30.2343 23.4824 30.1571 23.4039 30.1571C23.3197 30.1571 23.2813 32.2235 23.31 35.1962ZM56.1321 30.2674C55.6389 30.3624 55.5252 30.6688 55.4124 32.2041C55.2871 33.9119 54.5464 36.4305 53.7027 38.0183C52.4255 40.4219 50.1764 42.7752 47.9749 44.0116L47.1874 44.454L47.1872 45.4126C47.1871 46.2382 47.2364 46.4035 47.5435 46.6046C47.8774 46.8235 48.0775 46.7599 50.7403 45.5885C54.1991 44.0669 55.1028 43.3616 56.0505 41.4451L56.6402 40.2526L56.6872 35.2047C56.7132 32.4285 56.678 30.1666 56.6091 30.1783C56.5403 30.1901 56.3257 30.2302 56.1321 30.2674ZM35.1558 46.1485C35.1558 46.6587 35.5586 47.7838 36.776 50.6741C38.181 54.0098 38.5049 54.646 39.2133 55.4638C39.6628 55.9827 40.0763 56.4054 40.1322 56.4032C40.1882 56.401 40.5617 55.9616 40.9624 55.4266C41.9658 54.0866 44.8433 47.2188 44.8433 46.1635C44.8433 45.5546 44.8027 45.461 44.5699 45.5327C42.2057 46.2613 38.6546 46.3793 36.498 45.801C35.8183 45.6188 35.2382 45.4696 35.2089 45.4696C35.1797 45.4696 35.1558 45.7751 35.1558 46.1485ZM32.3772 49.4918L31.3953 50.1876L31.5 52.8676C31.6325 56.2571 31.8341 56.7196 33.1783 56.7196C33.7244 56.7196 34.7416 56.0471 35.5871 55.1273L35.9402 54.743L34.7436 51.8641C34.0857 50.2807 33.5049 48.9426 33.453 48.8905C33.4013 48.8385 32.9172 49.1091 32.3772 49.4918ZM46.5116 48.9541C46.4689 49.0573 46.035 50.0907 45.5475 51.2508C45.06 52.411 44.5282 53.6924 44.3655 54.0983L44.0697 54.8366L45.1636 55.778C46.0988 56.583 46.3464 56.7196 46.8699 56.7196C47.2874 56.7196 47.618 56.6027 47.9093 56.3522C48.3085 56.0088 48.3441 55.8738 48.4549 54.2819C48.5202 53.3454 48.5766 52.0165 48.5802 51.329L48.5868 50.079L47.588 49.4229C46.9318 48.9919 46.5627 48.8312 46.5116 48.9541ZM50.9288 51.6638C50.8944 54.1665 50.6541 56.369 50.3514 56.954C49.6768 58.2585 48.3557 59.0541 46.8546 59.0599C45.7091 59.0644 45.0936 58.7918 43.8316 57.7212C43.2611 57.2373 42.7758 56.8666 42.7528 56.8977C42.73 56.9287 42.1364 57.7127 41.4336 58.6401L40.1558 60.3262V68.9916V77.6571H47.9683H55.7808V71.9469V66.2366L56.1644 65.8532C56.6863 65.3312 57.3774 65.343 57.8007 65.8813C58.1049 66.2679 58.1246 66.4915 58.1246 69.5532V72.8133H62.0774H66.03L64.741 66.5243C64.0319 63.0654 63.3383 59.5672 63.1996 58.7508C63.0608 57.9344 62.7811 56.8994 62.578 56.4508C62.1672 55.544 61.033 54.3515 60.1716 53.921C59.8621 53.7665 57.7457 53.093 55.4683 52.4244C53.191 51.756 51.2399 51.1758 51.1324 51.1351C50.9978 51.0841 50.9344 51.2488 50.9288 51.6638ZM27.0422 65.8813C26.8641 66.1077 26.7183 66.4593 26.7183 66.6626C26.7183 67.0968 27.1855 67.6115 27.696 67.7396C27.8943 67.7894 29.6819 67.8088 31.6683 67.7827C34.9621 67.7394 35.3089 67.709 35.6085 67.4376C36.0374 67.0491 36.0455 66.203 35.6246 65.7821C35.3285 65.486 35.1038 65.4696 31.3391 65.4696H27.366L27.0422 65.8813ZM44.2297 65.8813C43.7038 66.5498 43.8594 67.2171 44.6377 67.6316C45.1322 67.8949 51.9711 67.8785 52.4964 67.6127C53.2949 67.2087 53.3866 66.0169 52.6497 65.6226C52.485 65.5344 50.7072 65.4696 48.4586 65.4696H44.5535L44.2297 65.8813ZM13.6246 75.3446C13.43 75.5391 13.3657 76.9766 13.5319 77.4099C13.615 77.6266 14.1344 77.6571 17.7507 77.6571H21.8746V76.4071V75.1571H17.8433C14.9163 75.1571 13.7607 75.2085 13.6246 75.3446ZM58.1246 76.4071V77.6571H62.2485C65.8647 77.6571 66.3841 77.6266 66.4672 77.4099C66.6335 76.9766 66.5691 75.5391 66.3746 75.3446C66.2385 75.2085 65.0828 75.1571 62.1558 75.1571H58.1246V76.4071Z" fill="#2196F3"/>
</g>
<defs>
<clipPath id="clip0_568_87203">
<rect width="80" height="80" fill="white"/>
</clipPath>
</defs>
</svg>
