<svg width="88" height="80" viewBox="0 0 88 80" fill="none" xmlns="http://www.w3.org/2000/svg">
<path d="M48.318 62.7062C48.318 60.3211 46.3847 58.3879 43.9996 58.3879C41.6149 58.3879 39.6817 60.3211 39.6817 62.7062C39.6817 65.0909 41.6149 67.0242 43.9996 67.0242C46.3847 67.0242 48.318 65.0909 48.318 62.7062ZM47.1972 28.7487C46.981 27.1659 45.6233 25.947 43.9814 25.9483C42.1904 25.9497 40.7397 27.4028 40.741 29.1939L40.7566 48.6589L40.7864 49.0986C41.0026 50.6817 42.3604 51.9006 44.0022 51.8993C45.7932 51.8976 47.2439 50.4447 47.2426 48.6537L47.227 29.1887L47.1972 28.7487ZM52.5122 5.01944C48.8096 -1.67322 39.1879 -1.67314 35.4857 5.01965L1.9953 65.5618C-1.5917 72.046 3.09818 80 10.5085 80H77.4914C84.9019 80 89.5917 72.046 86.0045 65.5613L52.5122 5.01944ZM41.1613 8.15921C42.3954 5.92829 45.6025 5.92825 46.8366 8.15913L80.3293 68.7014C81.5249 70.8625 79.9617 73.514 77.4914 73.514H10.5085C8.03841 73.514 6.47512 70.8625 7.67079 68.7014L41.1613 8.15921Z" fill="#FFCC00"/>
</svg>
