<svg width="20" height="21" viewBox="0 0 20 21" fill="none" xmlns="http://www.w3.org/2000/svg">
<path d="M11.2961 10.5089L19.7356 2.09802C20.0882 1.74212 20.0882 1.16555 19.7356 0.809645C19.3892 0.447378 18.8172 0.436498 18.4576 0.785336L10.0181 9.19626L1.6871 0.785336C1.5163 0.603201 1.27865 0.5 1.03003 0.5C0.781406 0.5 0.543754 0.603201 0.372953 0.785336C0.060334 1.1292 0.060334 1.65693 0.372953 2.00079L8.70394 10.3996L0.264445 18.7983C-0.0881485 19.1542 -0.0881485 19.7308 0.264445 20.0867C0.432304 20.26 0.663162 20.3566 0.903435 20.3541C1.14834 20.3741 1.39113 20.2954 1.57859 20.1353L10.0181 11.7244L18.4576 20.2326C18.6254 20.4059 18.8563 20.5025 19.0966 20.5C19.3366 20.5011 19.5669 20.4047 19.7356 20.2326C20.0882 19.8766 20.0882 19.3001 19.7356 18.9442L11.2961 10.5089Z" fill="#454545"/>
</svg>
